<svg width="357" height="173" viewBox="0 0 357 173" fill="none" xmlns="http://www.w3.org/2000/svg">
<g opacity="0.2">
<path d="M43.0979 41.8542C43.6979 40.0122 46.3039 40.0122 46.9019 41.8542L49.0419 48.4382C49.1727 48.8391 49.4268 49.1885 49.7681 49.4364C50.1093 49.6842 50.5202 49.8178 50.9419 49.8182H57.8659C59.8039 49.8182 60.6079 52.2982 59.0419 53.4382L53.4419 57.5062C53.1 57.7542 52.8454 58.1042 52.7146 58.5059C52.5838 58.9075 52.5836 59.3403 52.7139 59.7422L54.8539 66.3262C55.4539 68.1682 53.3439 69.7022 51.7739 68.5622L46.1739 64.4942C45.8324 64.2462 45.4211 64.1126 44.9989 64.1126C44.5768 64.1126 44.1655 64.2462 43.8239 64.4942L38.2239 68.5622C36.6559 69.7022 34.5479 68.1682 35.1459 66.3262L37.2859 59.7422C37.4163 59.3403 37.4161 58.9075 37.2853 58.5059C37.1545 58.1042 36.8999 57.7542 36.5579 57.5062L30.9599 53.4402C29.3939 52.3002 30.1999 49.8202 32.1359 49.8202H39.0579C39.48 49.8203 39.8914 49.6868 40.233 49.439C40.5746 49.1911 40.8291 48.8415 40.9599 48.4402L43.0999 41.8562L43.0979 41.8542Z" fill="#F29723"/>
</g>
<g opacity="0.2">
<path d="M136.098 110.854C136.698 109.012 139.304 109.012 139.902 110.854L142.042 117.438C142.173 117.839 142.427 118.189 142.768 118.436C143.109 118.684 143.52 118.818 143.942 118.818H150.866C152.804 118.818 153.608 121.298 152.042 122.438L146.442 126.506C146.1 126.754 145.845 127.104 145.715 127.506C145.584 127.908 145.584 128.34 145.714 128.742L147.854 135.326C148.454 137.168 146.344 138.702 144.774 137.562L139.174 133.494C138.832 133.246 138.421 133.113 137.999 133.113C137.577 133.113 137.166 133.246 136.824 133.494L131.224 137.562C129.656 138.702 127.548 137.168 128.146 135.326L130.286 128.742C130.416 128.34 130.416 127.908 130.285 127.506C130.155 127.104 129.9 126.754 129.558 126.506L123.96 122.44C122.394 121.3 123.2 118.82 125.136 118.82H132.058C132.48 118.82 132.891 118.687 133.233 118.439C133.575 118.191 133.829 117.841 133.96 117.44L136.1 110.856L136.098 110.854Z" fill="#F29723"/>
</g>
<g opacity="0.2">
<path d="M113.098 13.8542C113.698 12.0122 116.304 12.0122 116.902 13.8542L119.042 20.4382C119.173 20.8391 119.427 21.1885 119.768 21.4364C120.109 21.6842 120.52 21.8178 120.942 21.8182H127.866C129.804 21.8182 130.608 24.2982 129.042 25.4382L123.442 29.5062C123.1 29.7542 122.845 30.1042 122.715 30.5059C122.584 30.9075 122.584 31.3403 122.714 31.7422L124.854 38.3262C125.454 40.1682 123.344 41.7022 121.774 40.5622L116.174 36.4942C115.832 36.2462 115.421 36.1126 114.999 36.1126C114.577 36.1126 114.166 36.2462 113.824 36.4942L108.224 40.5622C106.656 41.7022 104.548 40.1682 105.146 38.3262L107.286 31.7422C107.416 31.3403 107.416 30.9075 107.285 30.5059C107.155 30.1042 106.9 29.7542 106.558 29.5062L100.96 25.4402C99.3939 24.3002 100.2 21.8202 102.136 21.8202H109.058C109.48 21.8203 109.891 21.6868 110.233 21.439C110.575 21.1911 110.829 20.8415 110.96 20.4402L113.1 13.8562L113.098 13.8542Z" fill="#F29723"/>
</g>
<g opacity="0.2">
<path d="M247.098 5.85416C247.698 4.01216 250.304 4.01216 250.902 5.85416L253.042 12.4382C253.173 12.8391 253.427 13.1885 253.768 13.4364C254.109 13.6842 254.52 13.8178 254.942 13.8182H261.866C263.804 13.8182 264.608 16.2982 263.042 17.4382L257.442 21.5062C257.1 21.7542 256.845 22.1042 256.715 22.5059C256.584 22.9075 256.584 23.3403 256.714 23.7422L258.854 30.3262C259.454 32.1682 257.344 33.7022 255.774 32.5622L250.174 28.4942C249.832 28.2462 249.421 28.1126 248.999 28.1126C248.577 28.1126 248.166 28.2462 247.824 28.4942L242.224 32.5622C240.656 33.7022 238.548 32.1682 239.146 30.3262L241.286 23.7422C241.416 23.3403 241.416 22.9075 241.285 22.5059C241.155 22.1042 240.9 21.7542 240.558 21.5062L234.96 17.4402C233.394 16.3002 234.2 13.8202 236.136 13.8202H243.058C243.48 13.8203 243.891 13.6868 244.233 13.439C244.575 13.1911 244.829 12.8415 244.96 12.4402L247.1 5.85616L247.098 5.85416Z" fill="#F29723"/>
</g>
<g opacity="0.2">
<path d="M206.098 129.854C206.698 128.012 209.304 128.012 209.902 129.854L212.042 136.438C212.173 136.839 212.427 137.189 212.768 137.436C213.109 137.684 213.52 137.818 213.942 137.818H220.866C222.804 137.818 223.608 140.298 222.042 141.438L216.442 145.506C216.1 145.754 215.845 146.104 215.715 146.506C215.584 146.908 215.584 147.34 215.714 147.742L217.854 154.326C218.454 156.168 216.344 157.702 214.774 156.562L209.174 152.494C208.832 152.246 208.421 152.113 207.999 152.113C207.577 152.113 207.166 152.246 206.824 152.494L201.224 156.562C199.656 157.702 197.548 156.168 198.146 154.326L200.286 147.742C200.416 147.34 200.416 146.908 200.285 146.506C200.155 146.104 199.9 145.754 199.558 145.506L193.96 141.44C192.394 140.3 193.2 137.82 195.136 137.82H202.058C202.48 137.82 202.891 137.687 203.233 137.439C203.575 137.191 203.829 136.841 203.96 136.44L206.1 129.856L206.098 129.854Z" fill="#F29723"/>
</g>
<g opacity="0.2" clip-path="url(#clip0_3819_6178)">
<path d="M268.098 119.854C268.698 118.012 271.304 118.012 271.902 119.854L274.042 126.438C274.173 126.839 274.427 127.189 274.768 127.436C275.109 127.684 275.52 127.818 275.942 127.818H282.866C284.804 127.818 285.608 130.298 284.042 131.438L278.442 135.506C278.1 135.754 277.845 136.104 277.715 136.506C277.584 136.908 277.584 137.34 277.714 137.742L279.854 144.326C280.454 146.168 278.344 147.702 276.774 146.562L271.174 142.494C270.832 142.246 270.421 142.113 269.999 142.113C269.577 142.113 269.166 142.246 268.824 142.494L263.224 146.562C261.656 147.702 259.548 146.168 260.146 144.326L262.286 137.742C262.416 137.34 262.416 136.908 262.285 136.506C262.155 136.104 261.9 135.754 261.558 135.506L255.96 131.44C254.394 130.3 255.2 127.82 257.136 127.82H264.058C264.48 127.82 264.891 127.687 265.233 127.439C265.575 127.191 265.829 126.841 265.96 126.44L268.1 119.856L268.098 119.854Z" fill="#F29723"/>
<g opacity="0.2">
<path d="M268.098 119.854C268.698 118.012 271.304 118.012 271.902 119.854L274.042 126.438C274.173 126.839 274.427 127.189 274.768 127.436C275.109 127.684 275.52 127.818 275.942 127.818H282.866C284.804 127.818 285.608 130.298 284.042 131.438L278.442 135.506C278.1 135.754 277.845 136.104 277.715 136.506C277.584 136.908 277.584 137.34 277.714 137.742L279.854 144.326C280.454 146.168 278.344 147.702 276.774 146.562L271.174 142.494C270.832 142.246 270.421 142.113 269.999 142.113C269.577 142.113 269.166 142.246 268.824 142.494L263.224 146.562C261.656 147.702 259.548 146.168 260.146 144.326L262.286 137.742C262.416 137.34 262.416 136.908 262.285 136.506C262.155 136.104 261.9 135.754 261.558 135.506L255.96 131.44C254.394 130.3 255.2 127.82 257.136 127.82H264.058C264.48 127.82 264.891 127.687 265.233 127.439C265.575 127.191 265.829 126.841 265.96 126.44L268.1 119.856L268.098 119.854Z" fill="#F29723"/>
</g>
</g>
<g opacity="0.2">
<path d="M180.098 38.8542C180.698 37.0122 183.304 37.0122 183.902 38.8542L186.042 45.4382C186.173 45.8391 186.427 46.1885 186.768 46.4364C187.109 46.6842 187.52 46.8178 187.942 46.8182H194.866C196.804 46.8182 197.608 49.2982 196.042 50.4382L190.442 54.5062C190.1 54.7542 189.845 55.1042 189.715 55.5059C189.584 55.9075 189.584 56.3403 189.714 56.7422L191.854 63.3262C192.454 65.1682 190.344 66.7022 188.774 65.5622L183.174 61.4942C182.832 61.2462 182.421 61.1126 181.999 61.1126C181.577 61.1126 181.166 61.2462 180.824 61.4942L175.224 65.5622C173.656 66.7022 171.548 65.1682 172.146 63.3262L174.286 56.7422C174.416 56.3403 174.416 55.9075 174.285 55.5059C174.155 55.1042 173.9 54.7542 173.558 54.5062L167.96 50.4402C166.394 49.3002 167.2 46.8202 169.136 46.8202H176.058C176.48 46.8203 176.891 46.6868 177.233 46.439C177.575 46.1911 177.829 45.8415 177.96 45.4402L180.1 38.8562L180.098 38.8542Z" fill="#F29723"/>
</g>
<g opacity="0.2">
<path d="M18.0979 110.854C18.6979 109.012 21.3039 109.012 21.9019 110.854L24.0419 117.438C24.1727 117.839 24.4268 118.189 24.7681 118.436C25.1093 118.684 25.5202 118.818 25.9419 118.818H32.8659C34.8039 118.818 35.6079 121.298 34.0419 122.438L28.4419 126.506C28.1 126.754 27.8454 127.104 27.7146 127.506C27.5838 127.908 27.5836 128.34 27.7139 128.742L29.8539 135.326C30.4539 137.168 28.3439 138.702 26.7739 137.562L21.1739 133.494C20.8324 133.246 20.4211 133.113 19.9989 133.113C19.5768 133.113 19.1655 133.246 18.8239 133.494L13.2239 137.562C11.6559 138.702 9.54795 137.168 10.1459 135.326L12.2859 128.742C12.4163 128.34 12.4161 127.908 12.2853 127.506C12.1545 127.104 11.8999 126.754 11.5579 126.506L5.95995 122.44C4.39395 121.3 5.19995 118.82 7.13595 118.82H14.0579C14.48 118.82 14.8914 118.687 15.233 118.439C15.5746 118.191 15.8291 117.841 15.9599 117.44L18.0999 110.856L18.0979 110.854Z" fill="#F29723"/>
</g>
<g opacity="0.2">
<path d="M335.098 114.854C335.698 113.012 338.304 113.012 338.902 114.854L341.042 121.438C341.173 121.839 341.427 122.189 341.768 122.436C342.109 122.684 342.52 122.818 342.942 122.818H349.866C351.804 122.818 352.608 125.298 351.042 126.438L345.442 130.506C345.1 130.754 344.845 131.104 344.715 131.506C344.584 131.908 344.584 132.34 344.714 132.742L346.854 139.326C347.454 141.168 345.344 142.702 343.774 141.562L338.174 137.494C337.832 137.246 337.421 137.113 336.999 137.113C336.577 137.113 336.166 137.246 335.824 137.494L330.224 141.562C328.656 142.702 326.548 141.168 327.146 139.326L329.286 132.742C329.416 132.34 329.416 131.908 329.285 131.506C329.155 131.104 328.9 130.754 328.558 130.506L322.96 126.44C321.394 125.3 322.2 122.82 324.136 122.82H331.058C331.48 122.82 331.891 122.687 332.233 122.439C332.575 122.191 332.829 121.841 332.96 121.44L335.1 114.856L335.098 114.854Z" fill="#F29723"/>
</g>
<g opacity="0.2">
<path d="M319.098 31.8542C319.698 30.0122 322.304 30.0122 322.902 31.8542L325.042 38.4382C325.173 38.8391 325.427 39.1885 325.768 39.4364C326.109 39.6842 326.52 39.8178 326.942 39.8182H333.866C335.804 39.8182 336.608 42.2982 335.042 43.4382L329.442 47.5062C329.1 47.7542 328.845 48.1042 328.715 48.5059C328.584 48.9075 328.584 49.3403 328.714 49.7422L330.854 56.3262C331.454 58.1682 329.344 59.7022 327.774 58.5622L322.174 54.4942C321.832 54.2462 321.421 54.1126 320.999 54.1126C320.577 54.1126 320.166 54.2462 319.824 54.4942L314.224 58.5622C312.656 59.7022 310.548 58.1682 311.146 56.3262L313.286 49.7422C313.416 49.3403 313.416 48.9075 313.285 48.5059C313.155 48.1042 312.9 47.7542 312.558 47.5062L306.96 43.4402C305.394 42.3002 306.2 39.8202 308.136 39.8202H315.058C315.48 39.8203 315.891 39.6868 316.233 39.439C316.575 39.1911 316.829 38.8415 316.96 38.4402L319.1 31.8562L319.098 31.8542Z" fill="#F29723"/>
</g>
<g opacity="0.2">
<path d="M77.0979 138.854C77.6979 137.012 80.3039 137.012 80.9019 138.854L83.0419 145.438C83.1727 145.839 83.4268 146.189 83.7681 146.436C84.1093 146.684 84.5202 146.818 84.9419 146.818H91.8659C93.8039 146.818 94.6079 149.298 93.0419 150.438L87.4419 154.506C87.1 154.754 86.8454 155.104 86.7146 155.506C86.5838 155.908 86.5836 156.34 86.7139 156.742L88.8539 163.326C89.4539 165.168 87.3439 166.702 85.7739 165.562L80.1739 161.494C79.8324 161.246 79.4211 161.113 78.9989 161.113C78.5768 161.113 78.1655 161.246 77.8239 161.494L72.2239 165.562C70.6559 166.702 68.5479 165.168 69.1459 163.326L71.2859 156.742C71.4163 156.34 71.4161 155.908 71.2853 155.506C71.1545 155.104 70.8999 154.754 70.5579 154.506L64.9599 150.44C63.3939 149.3 64.1999 146.82 66.1359 146.82H73.0579C73.48 146.82 73.8914 146.687 74.233 146.439C74.5746 146.191 74.8291 145.841 74.9599 145.44L77.0999 138.856L77.0979 138.854Z" fill="#F29723"/>
</g>
<path d="M48.0843 68.556C46.2123 75.504 50.1003 82.164 56.9043 84C58.9563 84.54 60.8643 84.576 62.9883 84.288L63.2403 79.248C61.2243 79.68 59.4963 79.464 58.2003 79.14C54.0243 78.024 51.7563 74.208 52.9443 69.888C54.0963 65.568 57.9483 63.408 62.1603 64.524C64.6083 65.208 66.5523 66.828 67.8483 69.24L71.3763 65.388C69.6123 62.544 66.7323 60.564 63.4563 59.664C56.5803 57.828 49.9203 61.644 48.0843 68.556ZM69.6241 72.48C68.1841 77.916 71.1721 82.668 76.5361 84.108C81.9001 85.548 86.8681 82.92 88.3441 77.52C89.7841 72.084 86.7961 67.332 81.4321 65.892C76.0681 64.452 71.1001 67.08 69.6241 72.48ZM83.5921 76.224C82.8721 79.032 80.3521 80.328 77.7601 79.608C75.1321 78.924 73.6201 76.548 74.3761 73.776C75.0961 70.968 77.6161 69.672 80.2081 70.392C82.8361 71.076 84.3481 73.452 83.5921 76.224ZM98.0568 67.836L98.7408 65.316L94.2768 64.128L89.6328 81.516L94.2048 82.74L96.4368 74.424C97.2648 71.328 98.9208 69.636 101.585 70.356C103.529 70.896 104.429 72.372 103.745 74.964L101.153 84.612L105.869 85.872L108.749 75.072C109.937 70.716 108.533 67.512 104.465 66.396C101.945 65.712 99.7488 66.432 98.0568 67.836ZM126.855 76.368C126.099 79.212 123.723 80.508 121.095 79.824C118.503 79.104 117.027 76.764 117.783 73.956C118.539 71.112 120.987 69.816 123.615 70.5C126.207 71.184 127.647 73.488 126.855 76.368ZM113.067 72.588C111.555 78.384 114.219 82.488 118.863 83.712C121.383 84.396 123.579 83.892 125.163 82.56L124.875 83.676C124.191 86.16 122.463 87.816 118.575 86.772C116.451 86.196 114.975 85.008 113.895 83.172L110.619 86.376C111.987 88.536 114.075 90.192 117.567 91.128C124.875 93.108 128.115 89.616 129.339 85.116L133.695 68.88L129.087 67.656L128.439 70.068C127.899 68.268 126.207 66.432 123.543 65.712C119.223 64.56 114.651 66.792 113.067 72.588ZM141.118 68.844L141.874 66L137.482 64.812L132.802 82.2L137.41 83.424L139.498 75.576C140.398 72.228 142.198 70.896 145.222 71.724C145.978 71.904 146.662 72.156 147.238 72.552L148.57 67.62C148.066 67.332 147.562 67.08 146.95 66.9C144.502 66.252 142.594 67.08 141.118 68.844ZM158.225 77.556C157.721 79.464 155.705 80.724 153.293 80.076C151.673 79.644 150.989 78.672 151.313 77.556C151.565 76.584 152.501 76.044 153.977 76.224L158.405 76.872L158.225 77.556ZM149.297 67.872L152.033 71.22C153.149 69.708 155.165 69.672 156.965 70.14C159.017 70.68 159.809 71.688 159.557 72.696L159.449 72.984C159.341 73.38 159.053 73.524 158.369 73.416L153.509 72.552C150.233 72.012 147.317 73.38 146.489 76.548C145.625 79.716 147.461 82.596 150.881 83.532C153.617 84.252 155.705 83.388 156.965 82.236L156.353 84.612L160.925 85.836L163.805 75.108C165.101 70.284 163.157 67.368 158.081 66C154.301 64.992 151.133 65.568 149.297 67.872ZM175.258 84.864L176.446 80.508C175.114 80.4 174.502 80.292 173.818 80.112C172.63 79.788 172.198 79.176 172.486 78.096L174.538 70.536L178.93 71.724L179.974 67.872L175.546 66.684L176.806 62.004L172.234 60.78L170.974 65.46L167.806 64.596L166.762 68.448L169.93 69.312L167.734 77.52C166.69 81.48 168.13 83.496 171.37 84.36C172.522 84.684 173.89 84.828 175.258 84.864ZM195.48 67.224L193.248 75.54C192.456 78.528 190.692 80.292 188.136 79.608C186.12 79.068 185.544 77.556 186.228 75.108L188.784 65.424L184.104 64.164L181.224 75C180.072 79.248 181.332 82.524 185.364 83.604C187.956 84.288 190.044 83.46 191.7 82.02L190.98 84.648L195.444 85.836L200.088 68.448L195.48 67.224ZM205.6 58.62L199.084 82.956L203.692 84.18L210.208 59.844L205.6 58.62ZM221.19 77.556C220.686 79.464 218.67 80.724 216.258 80.076C214.638 79.644 213.954 78.672 214.278 77.556C214.53 76.584 215.466 76.044 216.942 76.224L221.37 76.872L221.19 77.556ZM212.262 67.872L214.998 71.22C216.114 69.708 218.13 69.672 219.93 70.14C221.982 70.68 222.774 71.688 222.522 72.696L222.414 72.984C222.306 73.38 222.018 73.524 221.334 73.416L216.474 72.552C213.198 72.012 210.282 73.38 209.454 76.548C208.59 79.716 210.426 82.596 213.846 83.532C216.582 84.252 218.67 83.388 219.93 82.236L219.318 84.612L223.89 85.836L226.77 75.108C228.066 70.284 226.122 67.368 221.046 66C217.266 64.992 214.098 65.568 212.262 67.872ZM238.223 84.864L239.411 80.508C238.079 80.4 237.467 80.292 236.783 80.112C235.595 79.788 235.163 79.176 235.451 78.096L237.503 70.536L241.895 71.724L242.939 67.872L238.511 66.684L239.771 62.004L235.199 60.78L233.939 65.46L230.771 64.596L229.727 68.448L232.895 69.312L230.699 77.52C229.655 81.48 231.095 83.496 234.335 84.36C235.487 84.684 236.855 84.828 238.223 84.864ZM247.095 60.42C246.663 62.076 247.563 63.66 249.219 64.128C250.911 64.56 252.531 63.66 252.963 61.968C253.431 60.312 252.495 58.692 250.803 58.224C249.147 57.792 247.563 58.728 247.095 60.42ZM246.375 65.532L241.731 82.92L246.339 84.18L250.983 66.792L246.375 65.532ZM253.421 72.48C251.981 77.916 254.969 82.668 260.333 84.108C265.697 85.548 270.665 82.92 272.141 77.52C273.581 72.084 270.593 67.332 265.229 65.892C259.865 64.452 254.897 67.08 253.421 72.48ZM267.389 76.224C266.669 79.032 264.149 80.328 261.557 79.608C258.929 78.924 257.417 76.548 258.173 73.776C258.893 70.968 261.413 69.672 264.005 70.392C266.633 71.076 268.145 73.452 267.389 76.224ZM281.854 67.836L282.538 65.316L278.074 64.128L273.43 81.516L278.002 82.74L280.234 74.424C281.062 71.328 282.718 69.636 285.382 70.356C287.326 70.896 288.226 72.372 287.542 74.964L284.95 84.612L289.666 85.872L292.546 75.072C293.734 70.716 292.33 67.512 288.262 66.396C285.742 65.712 283.546 66.432 281.854 67.836ZM297.332 69.6C296.324 73.416 299.204 75.432 301.652 76.656C304.388 78.06 305.288 78.528 305.036 79.464C304.748 80.436 303.632 80.508 302.336 80.148C299.924 79.5 298.232 78.132 297.44 76.44L293.84 79.176C294.848 81.552 297.44 83.244 300.788 84.144C305.432 85.368 308.744 84.432 309.824 80.472C310.796 76.836 308.564 75 305.72 73.524C302.804 72.048 301.904 71.58 302.156 70.716C302.372 69.96 303.272 69.708 304.712 70.104C306.548 70.572 308.24 71.796 308.924 73.128L312.38 70.464C311.264 68.484 309.32 66.9 306.152 66.036C301.616 64.812 298.268 66.108 297.332 69.6Z" fill="#F29723"/>
<path d="M39.9797 114.144L41.6597 107.856L50.9477 99.696L47.0357 98.64L40.9637 103.968L38.3717 96.336L34.4597 95.28L38.4197 106.992L36.7397 113.28L39.9797 114.144ZM47.5007 106.32C46.5407 109.944 48.5327 113.112 52.1087 114.072C55.6847 115.032 58.9967 113.28 59.9807 109.68C60.9407 106.056 58.9487 102.888 55.3727 101.928C51.7967 100.968 48.4847 102.72 47.5007 106.32ZM56.8127 108.816C56.3327 110.688 54.6527 111.552 52.9247 111.072C51.1727 110.616 50.1647 109.032 50.6687 107.184C51.1487 105.312 52.8287 104.448 54.5567 104.928C56.3087 105.384 57.3167 106.968 56.8127 108.816ZM71.5918 102.816L70.1038 108.36C69.5758 110.352 68.3998 111.528 66.6958 111.072C65.3518 110.712 64.9678 109.704 65.4238 108.072L67.1278 101.616L64.0078 100.776L62.0878 108C61.3198 110.832 62.1598 113.016 64.8478 113.736C66.5758 114.192 67.9678 113.64 69.0718 112.68L68.5918 114.432L71.5678 115.224L74.6638 103.632L71.5918 102.816ZM85.3032 96.024L80.9352 112.272L84.0072 113.088L85.4952 107.544C86.0472 105.48 87.1512 104.352 88.9272 104.832C90.2712 105.192 90.7992 106.224 90.3672 107.904L88.6392 114.336L91.7592 115.176L93.7032 107.976C94.4712 105.048 93.5592 102.912 90.8472 102.192C89.1432 101.736 87.7512 102.192 86.6712 103.152L88.3512 96.864L85.3032 96.024ZM103.544 109.704C103.208 110.976 101.864 111.816 100.256 111.384C99.1765 111.096 98.7205 110.448 98.9365 109.704C99.1045 109.056 99.7285 108.696 100.712 108.816L103.664 109.248L103.544 109.704ZM97.5925 103.248L99.4165 105.48C100.16 104.472 101.504 104.448 102.704 104.76C104.072 105.12 104.6 105.792 104.432 106.464L104.36 106.656C104.288 106.92 104.096 107.016 103.64 106.944L100.4 106.368C98.2165 106.008 96.2725 106.92 95.7205 109.032C95.1445 111.144 96.3685 113.064 98.6485 113.688C100.472 114.168 101.864 113.592 102.704 112.824L102.296 114.408L105.344 115.224L107.264 108.072C108.128 104.856 106.832 102.912 103.448 102C100.928 101.328 98.8165 101.712 97.5925 103.248ZM113.835 114.096L122.139 103.92L118.731 103.008L113.835 109.392L112.827 101.424L109.395 100.488L111.507 113.496L113.835 114.096ZM120.93 106.44C119.994 109.896 121.578 113.136 125.514 114.168C127.722 114.768 129.378 114.408 130.53 113.88L129.93 111.024C128.922 111.48 127.722 111.696 126.33 111.312C124.986 110.952 123.762 109.92 123.81 108.264V108.192L132.33 110.496L132.546 109.656C133.554 105.912 132.018 102.912 128.49 101.952C124.842 100.968 121.842 103.008 120.93 106.44ZM129.594 107.376L124.362 105.96C125.058 104.664 126.234 104.136 127.698 104.52C129.186 104.928 129.786 106.08 129.594 107.376ZM148.263 109.704C147.927 110.976 146.583 111.816 144.975 111.384C143.895 111.096 143.439 110.448 143.655 109.704C143.823 109.056 144.447 108.696 145.431 108.816L148.383 109.248L148.263 109.704ZM142.311 103.248L144.135 105.48C144.879 104.472 146.223 104.448 147.423 104.76C148.791 105.12 149.319 105.792 149.151 106.464L149.079 106.656C149.007 106.92 148.815 107.016 148.359 106.944L145.119 106.368C142.935 106.008 140.991 106.92 140.439 109.032C139.863 111.144 141.087 113.064 143.367 113.688C145.191 114.168 146.583 113.592 147.423 112.824L147.015 114.408L150.063 115.224L151.983 108.072C152.847 104.856 151.551 102.912 148.167 102C145.647 101.328 143.535 101.712 142.311 103.248ZM153.883 106.584C152.899 110.256 154.843 113.352 158.395 114.288C160.339 114.816 162.067 114.504 163.339 113.784L162.283 110.88C161.467 111.336 160.435 111.648 159.235 111.312C157.531 110.856 156.523 109.272 157.027 107.424C157.531 105.576 159.163 104.688 160.891 105.144C162.043 105.456 162.763 106.2 163.243 107.016L165.643 105.024C164.875 103.704 163.555 102.648 161.707 102.168C158.131 101.208 154.867 102.912 153.883 106.584ZM165.813 106.44C164.877 109.896 166.461 113.136 170.397 114.168C172.605 114.768 174.261 114.408 175.413 113.88L174.813 111.024C173.805 111.48 172.605 111.696 171.213 111.312C169.869 110.952 168.645 109.92 168.693 108.264V108.192L177.213 110.496L177.429 109.656C178.437 105.912 176.901 102.912 173.373 101.952C169.725 100.968 166.725 103.008 165.813 106.44ZM174.477 107.376L169.245 105.96C169.941 104.664 171.117 104.136 172.581 104.52C174.069 104.928 174.669 106.08 174.477 107.376ZM185.558 104.832C187.286 105.312 188.294 106.848 187.766 108.768C187.262 110.664 185.606 111.504 183.902 111.048C182.174 110.592 181.19 109.008 181.694 107.136C182.198 105.264 183.83 104.376 185.558 104.832ZM190.478 98.304L188.774 104.616C188.294 103.296 187.214 102.072 185.414 101.592C182.582 100.848 179.606 102.384 178.55 106.296C177.494 110.208 179.318 113.04 182.198 113.808C183.878 114.264 185.414 113.88 186.566 112.92L186.134 114.528L189.182 115.344L193.526 99.12L190.478 98.304ZM206.306 114.576L207.098 111.672C206.21 111.6 205.802 111.528 205.346 111.408C204.554 111.192 204.266 110.784 204.458 110.064L205.826 105.024L208.754 105.816L209.45 103.248L206.498 102.456L207.338 99.336L204.29 98.52L203.45 101.64L201.338 101.064L200.642 103.632L202.754 104.208L201.29 109.68C200.594 112.32 201.554 113.664 203.714 114.24C204.482 114.456 205.394 114.552 206.306 114.576ZM212.967 96.024L208.599 112.272L211.671 113.088L213.159 107.544C213.711 105.48 214.815 104.352 216.591 104.832C217.935 105.192 218.463 106.224 218.031 107.904L216.303 114.336L219.423 115.176L221.367 107.976C222.135 105.048 221.223 102.912 218.511 102.192C216.807 101.736 215.415 102.192 214.335 103.152L216.015 96.864L212.967 96.024ZM226.073 98.28C225.785 99.384 226.385 100.44 227.489 100.752C228.617 101.04 229.697 100.44 229.985 99.312C230.297 98.208 229.673 97.128 228.545 96.816C227.441 96.528 226.385 97.152 226.073 98.28ZM225.593 101.688L222.497 113.28L225.569 114.12L228.665 102.528L225.593 101.688ZM230.923 104.4C230.251 106.944 232.171 108.288 233.803 109.104C235.627 110.04 236.227 110.352 236.059 110.976C235.867 111.624 235.123 111.672 234.259 111.432C232.651 111 231.523 110.088 230.995 108.96L228.595 110.784C229.267 112.368 230.995 113.496 233.227 114.096C236.323 114.912 238.531 114.288 239.251 111.648C239.899 109.224 238.411 108 236.515 107.016C234.571 106.032 233.971 105.72 234.139 105.144C234.283 104.64 234.883 104.472 235.843 104.736C237.067 105.048 238.195 105.864 238.651 106.752L240.955 104.976C240.211 103.656 238.915 102.6 236.803 102.024C233.779 101.208 231.547 102.072 230.923 104.4ZM250.628 97.08L246.284 113.304L249.356 114.12L253.7 97.896L250.628 97.08ZM253.821 106.44C252.885 109.896 254.469 113.136 258.405 114.168C260.613 114.768 262.269 114.408 263.421 113.88L262.821 111.024C261.813 111.48 260.613 111.696 259.221 111.312C257.877 110.952 256.653 109.92 256.701 108.264V108.192L265.221 110.496L265.437 109.656C266.445 105.912 264.909 102.912 261.381 101.952C257.733 100.968 254.733 103.008 253.821 106.44ZM262.485 107.376L257.253 105.96C257.949 104.664 259.125 104.136 260.589 104.52C262.077 104.928 262.677 106.08 262.485 107.376ZM268.025 104.4C267.353 106.944 269.273 108.288 270.905 109.104C272.729 110.04 273.329 110.352 273.161 110.976C272.969 111.624 272.225 111.672 271.361 111.432C269.753 111 268.625 110.088 268.097 108.96L265.697 110.784C266.369 112.368 268.097 113.496 270.329 114.096C273.425 114.912 275.633 114.288 276.353 111.648C277.001 109.224 275.513 108 273.617 107.016C271.673 106.032 271.073 105.72 271.241 105.144C271.385 104.64 271.985 104.472 272.945 104.736C274.169 105.048 275.297 105.864 275.753 106.752L278.057 104.976C277.313 103.656 276.017 102.6 273.905 102.024C270.881 101.208 268.649 102.072 268.025 104.4ZM279.486 104.4C278.814 106.944 280.734 108.288 282.366 109.104C284.19 110.04 284.79 110.352 284.622 110.976C284.43 111.624 283.686 111.672 282.822 111.432C281.214 111 280.086 110.088 279.558 108.96L277.158 110.784C277.83 112.368 279.558 113.496 281.79 114.096C284.886 114.912 287.094 114.288 287.814 111.648C288.462 109.224 286.974 108 285.078 107.016C283.134 106.032 282.534 105.72 282.702 105.144C282.846 104.64 283.446 104.472 284.406 104.736C285.63 105.048 286.758 105.864 287.214 106.752L289.518 104.976C288.774 103.656 287.478 102.6 285.366 102.024C282.342 101.208 280.11 102.072 279.486 104.4ZM289.915 106.32C288.955 109.944 290.947 113.112 294.523 114.072C298.099 115.032 301.411 113.28 302.395 109.68C303.355 106.056 301.363 102.888 297.787 101.928C294.211 100.968 290.899 102.72 289.915 106.32ZM299.227 108.816C298.747 110.688 297.067 111.552 295.339 111.072C293.587 110.616 292.579 109.032 293.083 107.184C293.563 105.312 295.243 104.448 296.971 104.928C298.723 105.384 299.731 106.968 299.227 108.816ZM308.87 103.224L309.326 101.544L306.35 100.752L303.254 112.344L306.302 113.16L307.79 107.616C308.342 105.552 309.446 104.424 311.222 104.904C312.518 105.264 313.118 106.248 312.662 107.976L310.934 114.408L314.078 115.248L315.998 108.048C316.79 105.144 315.854 103.008 313.142 102.264C311.462 101.808 309.998 102.288 308.87 103.224ZM322.189 97.056L319.333 107.664L322.597 108.528L325.429 97.92L322.189 97.056ZM320.653 109.296C319.381 108.96 318.205 109.68 317.869 110.928C317.533 112.176 318.205 113.376 319.453 113.712C320.725 114.048 321.949 113.352 322.285 112.104C322.621 110.856 321.901 109.632 320.653 109.296Z" fill="#006F7B"/>
<defs>
<clipPath id="clip0_3819_6178">
<rect width="40" height="40" fill="white" transform="translate(250 114)"/>
</clipPath>
</defs>
</svg>
