<svg width="135" height="43" viewBox="0 0 135 43" fill="none" xmlns="http://www.w3.org/2000/svg">
<path d="M12.8 0V2.75L4.3 19.1H0.8L9.1 3.1H0V0H12.8ZM0 37.2V34.45L8.5 18.1H12L3.7 34.1H12.85V37.2H0ZM21.15 23.2C25 23.2 26.85 25.05 26.85 28.55V37.2H23.9V35.3C23.1 36.55 21.6 37.45 19.55 37.45C16.7 37.45 14.95 35.65 14.95 33.2C14.95 30.7 16.8 29.2 19.3 28.95L23.1 28.55C23.65 28.5 23.9 28.3 23.9 27.9V27.6C23.9 26.55 23 25.8 21.2 25.8C19.55 25.8 18.15 26.4 17.75 27.9L15.35 26.4C16.05 24.45 17.95 23.2 21.15 23.2ZM23.9 30.9L19.95 31.4C18.6 31.55 18 32.25 18 33.2C18 34.25 18.75 34.95 20.25 34.95C22.5 34.95 23.9 33.35 23.9 31.75V30.9ZM37.35 23.2C40.7 23.2 42.3 25.45 42.3 28.95V37.2H39.3V29.35C39.3 27.1 38.15 26 36.45 26C33.8 26 32.95 28 32.95 30.75V37.2H30V23.55H32.85V25.45C33.9 24 35.5 23.2 37.35 23.2ZM51.6 23.2C53.8 23.2 55.4 24.2 56.15 25.4V23.5H59.15V36.35C59.15 39.75 57.65 43 52.15 43C49.05 43 47.25 41.9 46.05 40.25L47.85 38.05C48.85 39.5 50.25 40.3 52.2 40.3C55.45 40.3 56.25 38.4 56.25 36.3V35.3C55.4 36.6 53.75 37.45 51.65 37.45C47.8 37.45 45.1 34.85 45.1 30.35C45.1 25.9 48 23.2 51.6 23.2ZM52.3 26C49.85 26 48.15 27.8 48.15 30.35C48.15 32.9 49.85 34.7 52.3 34.7C54.75 34.7 56.3 33 56.3 30.35C56.3 27.7 54.75 26 52.3 26ZM74.8 23.55V37.2H71.95V35.2C70.95 36.7 69.65 37.55 67.6 37.55C64.1 37.55 62.65 35.25 62.65 31.85V23.55H65.7V31.4C65.7 33.45 66.35 34.7 68.4 34.7C71 34.7 71.85 32.6 71.85 29.95V23.55H74.8ZM83.85 23.2C87.7 23.2 89.55 25.05 89.55 28.55V37.2H86.6V35.3C85.8 36.55 84.3 37.45 82.25 37.45C79.4 37.45 77.65 35.65 77.65 33.2C77.65 30.7 79.5 29.2 82 28.95L85.8 28.55C86.35 28.5 86.6 28.3 86.6 27.9V27.6C86.6 26.55 85.7 25.8 83.9 25.8C82.25 25.8 80.85 26.4 80.45 27.9L78.05 26.4C78.75 24.45 80.7 23.2 83.85 23.2ZM86.6 30.9L82.65 31.4C81.3 31.55 80.7 32.25 80.7 33.2C80.7 34.25 81.45 34.95 82.95 34.95C85.2 34.95 86.6 33.35 86.6 31.75V30.9ZM98.45 23.2C100.65 23.2 102.25 24.2 103 25.4V23.5H106V36.35C106 39.75 104.5 43 99 43C95.9 43 94.1 41.9 92.9 40.25L94.7 38.05C95.7 39.5 97.1 40.3 99.05 40.3C102.3 40.3 103.1 38.4 103.1 36.3V35.3C102.25 36.6 100.6 37.45 98.5 37.45C94.65 37.45 91.95 34.85 91.95 30.35C91.95 25.9 94.85 23.2 98.45 23.2ZM99.15 26C96.7 26 95 27.8 95 30.35C95 32.9 96.7 34.7 99.15 34.7C101.6 34.7 103.15 33 103.15 30.35C103.15 27.7 101.6 26 99.15 26ZM115.45 23.2C119.7 23.2 122.1 26.2 122.1 30.4V31.25H111.6V31.3C111.85 33.6 113.75 34.75 115.7 34.75C117.5 34.75 118.85 33.95 119.8 32.95L121.2 35.35C120.1 36.45 118.3 37.5 115.75 37.5C111.4 37.5 108.6 34.6 108.6 30.4C108.6 26.4 111.25 23.2 115.45 23.2ZM115.4 25.85C113.25 25.85 112 27.1 111.65 29.05H118.9C118.65 27.15 117.5 25.85 115.4 25.85ZM129.55 23.2C132.15 23.2 133.85 24.2 135 25.7L133 27.6C132.35 26.6 131.1 25.9 129.4 25.9C128.05 25.9 127.15 26.4 127.15 27.25C127.15 28.25 128.25 28.5 130.35 28.95C132.65 29.45 135 30.15 135 33.15C135 36.15 132.75 37.5 129.45 37.5C126.85 37.5 124.55 36.65 123.4 34.75L125.4 32.8C126.25 34.2 127.85 34.8 129.65 34.8C131.05 34.8 132 34.35 132 33.3C132 32.25 131 32 128.95 31.55C126.8 31.1 124.1 30.3 124.1 27.3C124.15 24.8 126.15 23.2 129.55 23.2ZM22.05 19.1C17.4 19.1 14.25 15.25 14.25 9.55C14.25 3.85 17.4 0 22.05 0C26.7 0 29.85 3.85 29.85 9.55C29.85 15.25 26.75 19.1 22.05 19.1ZM22.05 3.1C18.6 3.1 17.35 6.45 17.35 9.55C17.35 12.65 18.6 16 22.05 16C25.5 16 26.75 12.65 26.75 9.55C26.75 6.45 25.55 3.1 22.05 3.1ZM39.9 19.1C35.25 19.1 32.1 15.25 32.1 9.55C32.1 3.85 35.25 0 39.9 0C44.55 0 47.7 3.85 47.7 9.55C47.7 15.25 44.6 19.1 39.9 19.1ZM39.9 3.1C36.45 3.1 35.2 6.45 35.2 9.55C35.2 12.65 36.45 16 39.9 16C43.35 16 44.6 12.65 44.6 9.55C44.6 6.45 43.4 3.1 39.9 3.1ZM57.75 19.1C53.1 19.1 49.95 15.25 49.95 9.55C49.95 3.85 53.1 0 57.75 0C62.4 0 65.55 3.85 65.55 9.55C65.55 15.25 62.45 19.1 57.75 19.1ZM57.75 3.1C54.3 3.1 53.05 6.45 53.05 9.55C53.05 12.65 54.3 16 57.75 16C61.2 16 62.45 12.65 62.45 9.55C62.45 6.45 61.25 3.1 57.75 3.1Z" fill="white"/>
</svg>
